<?xml version="1.0" standalone="no"?>
<!DOCTYPE svg PUBLIC "-//W3C//DTD SVG 20010904//EN"
 "http://www.w3.org/TR/2001/REC-SVG-20010904/DTD/svg10.dtd">
<svg version="1.0" xmlns="http://www.w3.org/2000/svg"
 width="700.000000pt" height="700.000000pt" viewBox="0 0 700.000000 700.000000"
 preserveAspectRatio="xMidYMid meet">
<metadata>
Created by potrace 1.14, written by Peter Selinger 2001-2017
</metadata>
<g transform="translate(0.000000,700.000000) scale(0.100000,-0.100000)"
fill="#000000" stroke="none">
<path d="M3278 6996 c-1 -2 -42 -6 -89 -10 -47 -4 -95 -8 -106 -10 -11 -3 -44
-7 -74 -11 -48 -6 -148 -23 -234 -40 -165 -33 -475 -128 -602 -186 -24 -10
-45 -19 -47 -19 -14 0 -284 -135 -371 -185 -683 -393 -1226 -1021 -1512 -1748
-26 -67 -48 -124 -49 -127 0 -3 -3 -12 -7 -20 -35 -88 -107 -369 -136 -534
-39 -220 -46 -307 -46 -601 0 -259 12 -435 38 -570 5 -23 14 -74 22 -125 3
-19 17 -80 31 -135 14 -55 27 -109 30 -120 6 -32 106 -329 114 -340 4 -5 17
-37 30 -70 55 -142 205 -423 313 -585 217 -323 515 -639 812 -858 39 -28 75
-55 80 -60 19 -16 149 -99 235 -152 313 -189 762 -362 1105 -424 17 -3 41 -8
55 -11 14 -3 72 -12 130 -20 58 -8 123 -17 145 -20 63 -10 573 -14 645 -5 36
5 92 11 125 15 33 3 71 8 85 10 388 61 690 153 1020 312 1059 509 1799 1535
1949 2698 27 210 35 536 18 745 -47 572 -233 1116 -552 1615 -36 57 -182 258
-221 304 -11 13 -27 32 -37 44 -114 138 -369 387 -487 476 -19 14 -44 34 -55
44 -10 9 -53 41 -95 69 -41 29 -77 54 -80 57 -6 7 -10 9 -155 97 -287 175
-628 317 -950 398 -159 39 -250 55 -525 92 -47 6 -546 15 -552 10z m320 -445
c109 -1 124 -15 20 -19 -392 -16 -823 -131 -1179 -315 -164 -84 -423 -253
-524 -342 -16 -14 -55 -48 -85 -74 -246 -217 -489 -528 -645 -827 -53 -102
-98 -204 -92 -210 8 -8 299 -18 532 -18 217 0 415 7 550 19 87 8 159 15 200
20 22 3 56 7 75 9 19 2 80 12 135 21 55 9 116 18 135 21 19 3 55 10 80 16 25
5 58 12 74 15 89 15 363 89 509 137 287 95 545 211 782 351 93 55 91 51 -30
-44 -203 -161 -460 -322 -720 -453 -115 -58 -145 -72 -287 -133 -79 -35 -91
-44 -90 -75 2 -53 14 -256 17 -273 2 -12 6 -44 9 -72 10 -87 28 -176 61 -311
l32 -132 -37 -11 c-109 -32 -260 -69 -264 -63 -7 13 -31 133 -42 215 -2 15 -6
42 -9 60 -14 94 -19 199 -18 355 0 94 -1 172 -3 172 -3 0 -57 -16 -122 -36
-192 -58 -560 -145 -677 -159 -11 -1 -24 -3 -29 -4 -8 -1 -2 -165 8 -231 2
-14 7 -50 11 -80 7 -62 14 -113 21 -150 2 -14 7 -41 10 -60 3 -19 9 -51 14
-70 5 -19 11 -48 14 -65 3 -16 10 -44 15 -62 9 -31 8 -33 -22 -38 -69 -11
-101 -14 -284 -30 -34 -3 -34 -3 -49 110 -3 28 -8 59 -10 70 -10 51 -18 236
-17 396 l0 177 -26 -4 c-73 -10 -180 -15 -425 -19 -148 -3 -272 -7 -274 -10
-2 -2 -11 -35 -19 -72 -8 -37 -16 -77 -19 -88 -34 -158 -63 -632 -41 -688 6
-17 29 -17 354 -12 192 2 364 7 383 9 19 2 82 7 139 11 57 4 111 8 120 10 9 1
48 6 86 9 39 4 81 9 95 11 53 8 97 14 140 20 25 3 68 10 95 15 28 5 66 12 85
15 149 25 477 105 720 177 205 60 567 184 665 228 11 5 85 36 165 70 80 34
183 82 230 107 94 50 300 177 371 229 46 34 73 46 47 22 -324 -305 -700 -568
-1143 -798 -66 -34 -124 -65 -128 -69 -17 -16 164 -347 279 -512 l53 -76 -82
-41 c-45 -22 -112 -54 -149 -71 l-68 -30 -31 42 c-74 101 -163 250 -234 393
-42 85 -81 154 -86 154 -5 0 -43 -14 -86 -31 -109 -44 -398 -141 -534 -179
-63 -18 -115 -33 -117 -35 -1 -1 26 -60 62 -131 68 -135 168 -306 242 -412 39
-56 52 -82 40 -82 -2 0 -82 -22 -177 -50 -96 -27 -181 -50 -189 -50 -29 0
-210 317 -299 525 -24 55 -47 104 -51 108 -4 5 -32 4 -61 -2 -52 -11 -287 -44
-399 -56 -30 -3 -71 -8 -90 -10 -19 -3 -75 -7 -123 -11 -48 -3 -95 -7 -105 -9
-9 -2 -46 -4 -81 -4 l-64 -1 7 -38 c22 -144 168 -514 279 -710 l42 -74 60 7
c33 3 69 8 80 10 21 5 55 10 140 20 28 4 82 13 120 20 39 8 87 16 107 19 20 3
79 15 130 27 51 11 104 23 118 25 42 8 371 92 445 114 39 11 99 29 135 40 509
149 1121 429 1550 707 105 69 387 275 435 319 12 11 54 48 95 83 41 36 98 87
125 115 78 78 93 87 46 26 -23 -30 -55 -71 -69 -90 -15 -19 -41 -50 -58 -70
-17 -19 -44 -51 -60 -70 -53 -64 -388 -396 -474 -471 -115 -99 -139 -119 -253
-207 l-99 -77 104 -100 c57 -55 119 -113 138 -128 79 -65 260 -196 327 -239
l72 -45 -22 -20 c-46 -43 -170 -133 -181 -133 -17 0 -211 110 -310 175 -102
67 -161 112 -287 222 -53 46 -99 83 -102 83 -3 0 -49 -27 -102 -60 -105 -66
-346 -203 -467 -265 -43 -22 -78 -43 -78 -46 0 -4 37 -40 81 -80 45 -41 87
-79 93 -84 73 -69 298 -236 411 -305 115 -71 114 -70 59 -100 -26 -14 -54 -30
-63 -35 -51 -32 -170 -95 -179 -95 -16 0 -216 115 -312 180 -90 61 -255 187
-316 242 -20 18 -57 52 -83 75 -25 24 -50 43 -56 43 -5 0 -71 -23 -145 -51
-74 -28 -142 -52 -150 -55 -8 -2 -87 -26 -174 -54 -87 -27 -231 -68 -320 -90
-88 -23 -161 -42 -163 -44 -5 -5 145 -155 230 -229 193 -169 383 -297 616
-416 l156 -80 110 48 c156 67 166 72 400 188 230 114 249 124 445 238 123 71
166 97 285 174 684 442 1227 962 1605 1538 50 75 92 139 95 142 13 12 -92
-215 -150 -325 -144 -275 -305 -526 -500 -778 -59 -77 -109 -145 -111 -150 -5
-12 14 -21 136 -67 239 -88 518 -152 765 -174 74 -7 98 -15 49 -16 -16 0 -58
-3 -94 -6 -136 -13 -468 -7 -566 11 -10 2 -41 7 -67 10 -27 4 -56 9 -65 11
-96 20 -178 39 -231 54 l-64 18 -201 -202 c-111 -111 -227 -225 -259 -254 -32
-30 -55 -57 -50 -61 10 -10 166 -59 293 -94 166 -44 303 -70 480 -91 19 -2 61
-7 93 -11 33 -3 86 -7 118 -8 107 -2 68 -15 -91 -31 -154 -14 -199 -17 -339
-16 -187 0 -272 7 -461 36 -138 21 -156 25 -230 44 l-67 17 -44 -34 c-116 -90
-308 -225 -438 -309 -79 -51 -137 -95 -130 -97 61 -19 227 -31 429 -31 155 0
354 11 370 19 3 2 30 7 60 10 30 4 89 14 130 22 41 9 86 18 98 20 13 3 49 12
80 20 32 9 71 19 87 23 118 30 372 133 508 205 135 71 157 84 287 171 215 143
375 282 571 495 69 75 -61 -98 -150 -200 -327 -373 -716 -653 -1159 -834 -225
-93 -481 -163 -697 -191 -27 -4 -52 -9 -55 -10 -3 -2 -46 -7 -95 -11 -171 -16
-601 -9 -706 11 -9 2 -39 6 -66 10 -276 38 -630 151 -907 292 -300 153 -539
326 -782 568 -179 178 -363 411 -465 592 -89 156 -105 187 -177 343 -69 150
-159 430 -187 580 -3 14 -7 36 -10 50 -11 54 -15 77 -20 120 -3 25 -8 52 -10
60 -2 8 -7 47 -10 85 -3 39 -8 89 -11 112 -6 63 -6 254 0 378 12 219 38 398
90 602 89 347 259 710 474 1009 39 54 81 111 94 125 13 15 46 54 73 88 80 98
291 300 410 394 131 104 116 92 190 143 229 156 520 298 775 379 117 37 320
88 400 100 19 3 49 7 65 10 17 3 53 8 80 11 28 3 61 7 75 10 14 2 81 7 150 10
69 4 126 7 127 8 1 1 15 1 30 0 15 -1 70 -3 121 -3z m-274 -597 c-125 -266
-216 -566 -255 -837 -8 -61 -17 -91 -28 -96 -24 -12 -182 -44 -187 -38 -5 5
39 182 53 217 3 8 7 17 7 20 4 21 61 167 67 174 5 6 9 16 9 23 0 20 118 254
175 348 53 86 142 215 175 253 11 13 20 29 20 35 0 5 2 8 5 5 3 -3 -16 -49
-41 -104z m-1097 -105 c-90 -208 -140 -357 -191 -572 -23 -95 -60 -303 -68
-381 -3 -33 -1 -32 -133 -36 l-80 -3 2 28 c3 41 79 276 130 400 47 115 138
301 192 395 42 70 195 299 199 295 1 -1 -22 -58 -51 -126z"/>
</g>
</svg>
